<svg xmlns="http://www.w3.org/2000/svg" viewBox="0 0 142.81 42.695">
  <defs>
    <clipPath id="a">
      <path d="M422.433 91.53c-.848 0-1.537-.69-1.537-1.54V85.37H400.97l-.039 2.92a32.145 32.145 0 0 1 13.677 26.331c0 17.746-14.412 32.187-32.122 32.187s-32.123-14.441-32.123-32.187A32.247 32.247 0 0 1 364 88.298c.014-.008.022-.008.039-.016l-.04-2.91h-19.926v4.618c0 .85-.688 1.54-1.536 1.54-.849 0-1.537-.69-1.537-1.54v-7.698h26.032l.088 6.68a1.54 1.54 0 0 1-.97 1.443 1.507 1.507 0 0 1-.382.408 29.15 29.15 0 0 0-12.333 23.808c0 16.052 13.03 29.107 29.05 29.107 16.02 0 29.05-13.055 29.05-29.108a29.076 29.076 0 0 0-12.788-24.119 1.435 1.435 0 0 1-.37-.37 1.508 1.508 0 0 1-.536-1.161l.088-6.68 26.04-.008v7.698c0 .85-.688 1.54-1.536 1.54z" clip-rule="evenodd"/>
    </clipPath>
    <clipPath id="b">
      <path d="M0 0h842v595H0z"/>
    </clipPath>
    <clipPath id="c">
      <path d="M401.906 112.395a33.574 33.574 0 0 1-2.048 2.305 35.18 35.18 0 0 1 2.048 2.304c3.422 4.245 4.483 8.004 2.991 10.589-1.134 1.964-3.592 3.002-7.104 3.002-1.958 0-4.192-.326-6.584-.93-1.893 6.589-5.026 10.825-8.636 10.825-3.613 0-6.743-4.236-8.637-10.824-2.393.603-4.625.929-6.585.929-3.517 0-5.97-1.038-7.105-3.002-1.493-2.585-.428-6.347 2.992-10.589a35.297 35.297 0 0 1 2.053-2.313c-4.755-4.932-6.851-9.759-5.048-12.887 1.134-1.964 3.588-3.002 7.105-3.002 1.957 0 4.191.326 6.585.929 1.892-6.588 5.024-10.823 8.634-10.823 3.613 0 6.742 4.235 8.636 10.823 2.395-.603 4.63-.929 6.587-.929 3.512 0 5.97 1.038 7.104 3.002 1.495 2.585.434 6.347-2.988 10.591zm-4.113 16.281c1.944 0 4.468-.352 5.442-2.042 1.053-1.822.022-4.893-2.822-8.423a33.472 33.472 0 0 0-1.921-2.166c-1.667 1.572-3.57 3.113-5.649 4.586a51.992 51.992 0 0 1-1.151 7.182c2.222.562 4.294.863 6.1.863zm-10.91-21.445a63.063 63.063 0 0 0-4.31-2.269 62.807 62.807 0 0 0-8.44 4.872 64.61 64.61 0 0 0-.181 4.869c0 1.695.066 3.321.18 4.875a65.86 65.86 0 0 0 4.129 2.594 61.416 61.416 0 0 0 4.312 2.269 63.124 63.124 0 0 0 8.443-4.869c.118-1.554.182-3.177.182-4.869 0-1.693-.064-3.315-.182-4.87a62.892 62.892 0 0 0-4.134-2.602zm3.892.136a48.837 48.837 0 0 0-.91-5.277 49.207 49.207 0 0 0-5.033 1.846 63.313 63.313 0 0 1 3.01 1.633c1.003.579 1.983 1.179 2.933 1.797zm-10.46-3.433a49.96 49.96 0 0 0-5.034-1.847 48.848 48.848 0 0 0-.91 5.276 66.146 66.146 0 0 1 2.931-1.798 65.115 65.115 0 0 1 3.012-1.631zm-8.194 7.342a48.977 48.977 0 0 0-4.113 3.44 48.71 48.71 0 0 0 4.114 3.426 64.15 64.15 0 0 1-.094-3.439c.002-1.168.036-2.308.093-3.427zm2.247 10.757c.226 1.895.533 3.66.91 5.276a49.206 49.206 0 0 0 5.033-1.843 66.755 66.755 0 0 1-3.012-1.632 67.87 67.87 0 0 1-2.931-1.8zm10.464 3.433a49.916 49.916 0 0 0 5.032 1.847c.374-1.617.685-3.382.911-5.276a66.612 66.612 0 0 1-2.93 1.797 68.939 68.939 0 0 1-3.013 1.632zm8.193-7.342a49.702 49.702 0 0 0 4.097-3.424 49.092 49.092 0 0 0-4.097-3.424c.057 1.12.09 2.26.09 3.424a67.14 67.14 0 0 1-.09 3.424zm-10.452 20.444c2.512 0 5.132-3.496 6.815-9.406-2.192-.66-4.49-1.539-6.815-2.606-2.325 1.067-4.623 1.945-6.815 2.606 1.682 5.91 4.3 9.406 6.815 9.406zm-20.665-11.934c.974 1.686 3.497 2.042 5.443 2.042 1.806 0 3.877-.301 6.1-.863-.521-2.196-.91-4.609-1.152-7.182-2.107-1.494-4.001-3.038-5.645-4.589-.7.724-1.342 1.448-1.924 2.17-2.843 3.529-3.872 6.6-2.822 8.422zm5.443-25.91c-1.946 0-4.47.352-5.443 2.039-1.255 2.178.461 6.19 4.731 10.603a52.974 52.974 0 0 1 5.663-4.6c.239-2.57.63-4.984 1.152-7.182-2.226-.556-4.297-.86-6.103-.86zm15.222-9.892c-2.512 0-5.133 3.496-6.815 9.403 2.192.66 4.49 1.539 6.815 2.607 2.325-1.068 4.623-1.946 6.815-2.604-1.686-5.91-4.303-9.406-6.815-9.406zm20.662 11.934c-.974-1.687-3.498-2.043-5.442-2.043-1.807 0-3.879.302-6.101.864.521 2.198.91 4.612 1.151 7.182 2.079 1.473 3.981 3.017 5.649 4.586a32.669 32.669 0 0 0 1.92-2.167c2.848-3.529 3.876-6.6 2.823-8.422z" clip-rule="evenodd"/>
    </clipPath>
    <clipPath id="d">
      <path d="M0 0h842v595H0z"/>
    </clipPath>
    <clipPath id="e">
      <path d="M382.573 121.997c-4.022 0-7.294-3.273-7.294-7.297 0-4.024 3.271-7.3 7.294-7.3s7.295 3.272 7.295 7.3c0 4.024-3.272 7.297-7.295 7.297zm0-12.676a5.384 5.384 0 0 0-5.377 5.379 5.384 5.384 0 0 0 5.377 5.379 5.384 5.384 0 0 0 5.377-5.38c-.003-2.965-2.412-5.378-5.377-5.378z" clip-rule="evenodd"/>
    </clipPath>
    <clipPath id="f">
      <path d="M0 0h842v595H0z"/>
    </clipPath>
    <clipPath id="g">
      <path d="M432.302 95.233h103.993v3.886H432.302z"/>
    </clipPath>
    <clipPath id="h">
      <path d="M0 0h842v595H0z"/>
    </clipPath>
  </defs>
  <g clip-path="url(#a)" transform="matrix(.66177 0 0 -.66177 -225.664 97.154)">
    <g clip-path="url(#b)">
      <path d="M336 77.292h92.97v74.517H336z" fill="#1d2951"/>
    </g>
  </g>
  <g clip-path="url(#c)" transform="matrix(.66177 0 0 -.66177 -225.664 97.154)">
    <g clip-path="url(#d)">
      <path d="M354.587 83.908h55.969v61.582h-55.969z" fill="#1d2951"/>
    </g>
  </g>
  <g clip-path="url(#e)" transform="matrix(.66177 0 0 -.66177 -225.664 97.154)">
    <g clip-path="url(#f)">
      <path d="M370.279 102.4h24.589v24.597h-24.59z" fill="#1d2951"/>
    </g>
  </g>
  <g clip-path="url(#g)" transform="matrix(.8114 0 0 -.5447 -292.338 83.86)">
    <g clip-path="url(#h)">
      <path fill="#1d2951" d="M429.321 93.751h109.512v5.691H429.321z"/>
    </g>
  </g>
  <g aria-label="Quantum-Resistant Ledger" style="line-height:1.25" font-weight="600" font-size="24" font-family="Titillium Web" letter-spacing="0" word-spacing="0" fill="#1d2951" text-anchor="middle">
    <path d="M61.162 39.882q-1.125 0-1.572-.606-.44-.605-.44-1.91 0-1.313.447-1.947.455-.635 1.565-.635 1.11 0 1.557.635.447.627.447 1.94 0 .865-.187 1.398-.18.534-.599.815l.606.973-.743.346-.641-1.052q-.137.043-.44.043zm-.937-1.118q.245.418.937.418.692 0 .93-.41.245-.419.245-1.406 0-.988-.252-1.435-.245-.447-.923-.447t-.93.447q-.252.447-.252 1.427t.245 1.406zM66.19 36.198h.778v3.605h-.779v-.224q-.526.303-.973.303-.743 0-.995-.397-.253-.403-.253-1.406v-1.881h.786v1.889q0 .648.108.872.109.223.505.223.39 0 .714-.144l.108-.043zM70.587 37.308v1.644q.007.158.08.238.079.072.237.093l-.021.599q-.62 0-.96-.267-.576.267-1.16.267-1.074 0-1.074-1.147 0-.547.288-.793.296-.245.901-.295l.93-.08v-.26q0-.287-.13-.403-.122-.115-.367-.115-.462 0-1.154.057l-.23.015-.03-.555q.787-.188 1.443-.188.663 0 .951.289.296.28.296.9zm-1.615.894q-.498.043-.498.54 0 .498.44.498.36 0 .764-.115l.13-.043v-.96zM72.366 39.803h-.785v-3.605h.778v.223q.527-.303.995-.303.721 0 .98.411.268.404.268 1.341v1.933h-.78v-1.911q0-.584-.129-.83-.122-.244-.512-.244-.368 0-.706.144l-.109.043zM77.463 36.868h-.995v1.586q0 .44.065.584.065.144.332.144l.59-.021.037.627q-.483.094-.736.094-.612 0-.843-.281-.224-.282-.224-1.06v-1.673h-.461v-.67h.461v-1.046h.779v1.046h.995zM80.285 36.198h.779v3.605h-.779v-.224q-.526.303-.973.303-.743 0-.995-.397-.253-.403-.253-1.406v-1.881h.786v1.889q0 .648.108.872.109.223.505.223.39 0 .714-.144l.108-.043zM82.801 39.803h-.786v-3.605h.779v.223q.512-.303.937-.303.628 0 .916.354.656-.354 1.305-.354.649 0 .916.404.266.397.266 1.348v1.933h-.778v-1.911q0-.584-.123-.83-.115-.244-.49-.244-.325 0-.7.144l-.122.05q.058.144.058.923v1.868h-.78V37.95q0-.642-.114-.887-.116-.245-.505-.245-.36 0-.67.144l-.109.043zM88.02 38.216v-.713h2.156v.713zM91.992 38.043v1.76h-.8v-4.94h1.874q1.673 0 1.673 1.572 0 1.053-.807 1.428l.814 1.94h-.88l-.713-1.76zm1.925-1.6q0-.887-.85-.887h-1.075v1.795h1.089q.432 0 .634-.245.202-.252.202-.663zM98.058 39.154l.202-.022.015.584q-.822.166-1.457.166-.8 0-1.153-.44-.346-.44-.346-1.406 0-1.918 1.564-1.918 1.514 0 1.514 1.651l-.05.563h-2.235q.007.447.194.656.188.209.7.209t1.052-.043zm-.432-1.428q0-.533-.173-.743-.166-.216-.57-.216-.404 0-.591.224-.18.223-.187.735zM101.655 36.94q-.85-.115-1.233-.115-.382 0-.534.094-.144.086-.144.28 0 .195.159.275.166.079.764.187.606.101.858.325.252.223.252.793 0 .57-.367.836-.36.267-1.06.267-.44 0-1.11-.123l-.224-.036.029-.656q.865.115 1.247.115.382 0 .54-.093.167-.094.167-.31 0-.217-.159-.296-.151-.086-.743-.18-.584-.101-.857-.31-.274-.21-.274-.764 0-.556.374-.83.383-.274.974-.274.461 0 1.132.116l.223.043zM102.533 39.803v-3.605h.786v3.605zm0-4.218v-.83h.786v.83zM106.767 36.94q-.851-.115-1.233-.115-.382 0-.534.094-.144.086-.144.28 0 .195.159.275.165.079.764.187.605.101.858.325.252.223.252.793 0 .57-.368.836-.36.267-1.06.267-.44 0-1.11-.123l-.223-.036.029-.656q.865.115 1.247.115.382 0 .54-.093.166-.094.166-.31 0-.217-.158-.296-.152-.086-.743-.18-.584-.101-.858-.31-.274-.21-.274-.764 0-.556.375-.83.382-.274.974-.274.461 0 1.131.116l.224.043zM109.584 36.868h-.995v1.586q0 .44.065.584.065.144.331.144l.592-.021.036.627q-.483.094-.736.094-.613 0-.843-.281-.224-.282-.224-1.06v-1.673h-.461v-.67h.461v-1.046h.779v1.046h.995zM112.89 37.308v1.644q.006.158.078.238.08.072.238.093l-.021.599q-.62 0-.96-.267-.576.267-1.16.267-1.074 0-1.074-1.147 0-.547.288-.793.296-.245.901-.295l.93-.08v-.26q0-.287-.13-.403-.122-.115-.367-.115-.462 0-1.154.057l-.23.015-.03-.555q.787-.188 1.443-.188.663 0 .951.289.296.28.296.9zm-1.616.894q-.497.043-.497.54 0 .498.44.498.36 0 .764-.115l.13-.043v-.96zM114.669 39.803h-.786v-3.605h.778v.223q.527-.303.995-.303.721 0 .98.411.268.404.268 1.341v1.933h-.779v-1.911q0-.584-.13-.83-.122-.244-.512-.244-.367 0-.706.144l-.108.043zM119.765 36.868h-.995v1.586q0 .44.065.584.065.144.332.144l.59-.021.037.627q-.483.094-.735.094-.613 0-.844-.281-.224-.282-.224-1.06v-1.673h-.461v-.67h.461v-1.046h.78v1.046h.994zM124.856 39.803h-2.768v-4.94h.8v4.226h1.968zM127.983 39.154l.201-.022.015.584q-.822.166-1.457.166-.8 0-1.153-.44-.346-.44-.346-1.406 0-1.918 1.564-1.918 1.514 0 1.514 1.651l-.05.563h-2.235q.007.447.195.656.187.209.699.209t1.053-.043zm-.433-1.428q0-.533-.173-.743-.166-.216-.57-.216-.403 0-.59.224-.181.223-.188.735zM132.019 34.698v5.105h-.779v-.188q-.526.267-.966.267-.707 0-1.038-.426-.325-.425-.325-1.427t.36-1.457q.368-.454 1.14-.454.26 0 .822.094v-1.514zm-.909 4.355l.123-.05v-2.135q-.433-.072-.8-.072-.729 0-.729 1.211 0 .664.166.923.173.252.54.252.369 0 .7-.13zM136.114 40.293q0 1.182-1.708 1.182-.822 0-1.219-.223-.396-.224-.396-.815 0-.267.13-.461.13-.188.418-.411-.238-.159-.238-.527 0-.144.194-.468l.065-.109q-.519-.31-.519-1.081 0-.649.39-.952.389-.303 1.052-.303.317 0 .627.073l.109.021 1.117-.029v.635l-.598-.036q.194.252.194.591 0 .707-.36.98-.353.267-1.11.267-.188 0-.318-.029-.1.246-.1.383 0 .13.13.18.136.05.648.058.858.007 1.175.23.317.224.317.844zm-2.552.072q0 .252.202.36.202.109.692.109.873 0 .873-.498 0-.281-.16-.36-.15-.073-.612-.08l-.706-.043q-.16.13-.224.238-.065.115-.065.274zm.058-2.985q0 .332.158.49.159.152.512.152.354 0 .505-.152.159-.158.159-.49 0-.332-.159-.483-.159-.159-.512-.159-.663 0-.663.642zM139.318 39.154l.202-.022.015.584q-.822.166-1.457.166-.8 0-1.153-.44-.346-.44-.346-1.406 0-1.918 1.564-1.918 1.514 0 1.514 1.651l-.05.563h-2.235q.007.447.194.656.188.209.7.209t1.052-.043zm-.432-1.428q0-.533-.173-.743-.166-.216-.57-.216-.404 0-.591.224-.18.223-.187.735zM140.413 39.803v-3.605h.779v.432q.613-.396 1.225-.512v.786q-.62.123-1.06.317l-.158.065v2.517z" style="-inkscape-font-specification:'Titillium Web Semi-Bold';text-align:center"/>
  </g>
  <g aria-label="The" style="line-height:1.25" font-weight="600" font-size="29.333" font-family="Titillium Web" letter-spacing="0" word-spacing="0" fill="#1d2951">
    <path d="M58.43 3.72V2.85h4.406v.872h-1.7v5.164h-.987V3.72zM64.488 8.885h-.96v-6.24h.96v2.063q.652-.326 1.207-.326.881 0 1.198.502.326.494.326 1.64v2.36h-.96V6.55q0-.714-.15-1.014-.15-.3-.634-.3-.423 0-.846.142l-.141.052zM71.483 8.092l.247-.027.018.714q-1.005.203-1.78.203-.978 0-1.41-.538-.423-.537-.423-1.718 0-2.344 1.912-2.344 1.85 0 1.85 2.018l-.061.687h-2.732q.009.547.238.802.23.256.855.256t1.286-.053zm-.528-1.745q0-.652-.212-.908-.203-.264-.696-.264-.494 0-.723.273-.22.273-.229.899z" style="-inkscape-font-specification:'Titillium Web Semi-Bold';text-align:start"/>
  </g>
  <g aria-label="QRL" style="line-height:1.25" font-weight="600" font-size="96" font-family="Titillium Web" letter-spacing="0" word-spacing="0" fill="#1d2951">
    <path d="M84.333 23.036q-4.499 0-6.287-2.423-1.759-2.423-1.759-7.643 0-5.248 1.788-7.786 1.817-2.538 6.258-2.538 4.442 0 6.23 2.538 1.788 2.509 1.788 7.758 0 3.46-.75 5.595-.72 2.134-2.394 3.258l2.423 3.894-2.97 1.384-2.567-4.21q-.548.173-1.76.173zm-3.749-4.47q.98 1.672 3.75 1.672 2.768 0 3.72-1.644.98-1.672.98-5.624 0-3.95-1.009-5.739-.98-1.788-3.692-1.788-2.71 0-3.72 1.788-1.01 1.788-1.01 5.71 0 3.923.981 5.624zM99.28 15.681v7.037h-3.202V2.963h7.499q6.69 0 6.69 6.287 0 4.21-3.23 5.71l3.26 7.758h-3.519l-2.855-7.037zm7.7-6.402q0-3.547-3.403-3.547H99.28v7.18h4.355q1.73 0 2.537-.98.808-1.01.808-2.653zM124.953 22.718h-11.075V2.963h3.201v16.9h7.874z" style="-inkscape-font-specification:'Titillium Web Semi-Bold';text-align:start"/>
  </g>
</svg>
