<?xml version="1.0" encoding="UTF-8" standalone="no"?>
<svg
   xmlns:dc="http://purl.org/dc/elements/1.1/"
   xmlns:cc="http://creativecommons.org/ns#"
   xmlns:rdf="http://www.w3.org/1999/02/22-rdf-syntax-ns#"
   xmlns:svg="http://www.w3.org/2000/svg"
   xmlns="http://www.w3.org/2000/svg"
   xmlns:sodipodi="http://sodipodi.sourceforge.net/DTD/sodipodi-0.dtd"
   xmlns:inkscape="http://www.inkscape.org/namespaces/inkscape"
   width="215.1553"
   height="75.296059"
   viewBox="0 0 215.1553 75.296059"
   version="1.1"
   id="svg14"
   sodipodi:docname="logo-black.svg"
   inkscape:version="1.0.1 (1.0.1+r73)">
  <metadata
     id="metadata20">
    <rdf:RDF>
      <cc:Work
         rdf:about="">
        <dc:format>image/svg+xml</dc:format>
        <dc:type
           rdf:resource="http://purl.org/dc/dcmitype/StillImage" />
      </cc:Work>
    </rdf:RDF>
  </metadata>
  <defs
     id="defs18" />
  <sodipodi:namedview
     pagecolor="#ffffff"
     bordercolor="#666666"
     borderopacity="1"
     objecttolerance="10"
     gridtolerance="10"
     guidetolerance="10"
     inkscape:pageopacity="0"
     inkscape:pageshadow="2"
     inkscape:window-width="2650"
     inkscape:window-height="1780"
     id="namedview16"
     showgrid="false"
     inkscape:zoom="4.2647059"
     inkscape:cx="107.99981"
     inkscape:cy="37.500462"
     inkscape:window-x="0"
     inkscape:window-y="27"
     inkscape:window-maximized="0"
     inkscape:current-layer="svg14" />
  <title
     id="title2">Logo/black</title>
  <g
     id="Logo/black"
     stroke="none"
     stroke-width="1"
     fill="none"
     fill-rule="evenodd"
     transform="translate(-45.000191,-44.999538)">
    <g
       id="Group-15"
       transform="translate(45,44)"
       fill="#000000">
      <g
         id="Group-7"
         transform="translate(0,0.2955)">
        <path
           d="M 71.154,36.2821 C 71.154,16.5971 55.083,0.5981 35.375,0.7045664 16.909,0.8061 1.281,15.4591 0.078,33.8901 c -0.858,13.184 5.428,25.461 16.474,32.463 l -0.013,5.142 -12.014,0.039 v -8.182 H 0.023 v 12.648 h 21.024 l 0.013,-9.729 c 0.003,-1.505 -0.777,-2.896 -2.087,-3.725 -9.056,-5.724 -14.465,-15.54 -14.465,-26.264 0,-17.072 13.841,-30.971 30.89,-31.072 16.705,-0.097 30.682,13.314 31.235,30.009 0.37,11.133 -5.091,21.415 -14.446,27.327 -1.31,0.829 -2.09,2.22 -2.087,3.725 l 0.023,9.729 h 21.015 v -12.648 h -4.505 l 0.039,8.143 -12.053,0.039 -0.013,-5.185 c 10.359,-6.556 16.548,-17.793 16.548,-30.067"
           id="Fill-5" />
        <path
           d="m 35.5769,31.8256 c -2.457,0 -4.456,1.999 -4.456,4.456 0,2.458 1.999,4.457 4.456,4.457 2.457,0 4.456,-1.999 4.456,-4.457 0,-2.457 -1.999,-4.456 -4.456,-4.456"
           id="Fill-3" />
        <path
           d="m 46.7814,35.4501 c 1.583,1.469 3.338,3.254 4.83,4.947 3.29,3.735 3.868,6.095 3.313,7.054 -0.53,0.92 -2.923,1.518 -7.064,0.79 -0.673,-0.117 -1.365,-0.27 -2.074,-0.445 0.663,-3.618 1.002,-7.574 1.002,-11.517 -0.004,-0.273 -0.004,-0.553 -0.007,-0.829 m -14.556,6.638 c -3.276,-1.892 -6.078,-3.882 -8.389,-5.812 2.434,-2.029 5.282,-4.005 8.389,-5.799 3.108,-1.795 6.241,-3.274 9.215,-4.366 0.52,2.968 0.839,6.391 0.839,10.171 0,3.78 -0.319,7.207 -0.839,10.171 -2.974,-1.092 -6.107,-2.571 -9.215,-4.365 m -5.048,5.213 c -6.267,2.188 -10.236,1.382 -10.948,0.15 -0.53,-0.92 0.143,-3.29 2.848,-6.514 0.438,-0.523 0.916,-1.05 1.423,-1.573 2.802,2.382 6.059,4.651 9.472,6.624 0.085,0.049 0.173,0.098 0.257,0.147 -1.215,0.481 -2.379,0.932 -3.052,1.166 m 3,-23.407 c 0.452,-2.012 1.05,-3.858 1.05,-3.858 1.466,-4.209 3.241,-6.095 4.349,-6.095 1.509,0 3.452,2.848 4.86,7.746 -3.39,1.203 -6.956,2.861 -10.464,4.886 -0.139,0.081 -0.276,0.162 -0.412,0.244 0.198,-1.002 0.406,-1.977 0.617,-2.923 m 21.073,29.187 c 4.541,0 6.622,-1.726 7.574,-3.377 1.834,-3.176 0.546,-7.311 -3.832,-12.284 -2.425,-2.753 -6.082,-6.355 -8.565,-8.146 -0.16,-1.544 -0.374,-3.056 -0.641,-4.512 0.709,-0.175 1.405,-0.325 2.074,-0.445 4.141,-0.731 6.534,-0.13 7.064,0.79 0.357,0.621 0.084,1.908 -0.751,3.533 -0.715,1.395 -1.362,2.168 -1.567,2.396 1.29,1.154 2.457,2.36 3.208,3.166 0.381,-0.403 1.349,-1.525 2.367,-3.501 1.618,-3.147 1.836,-5.786 0.646,-7.847 -1.205,-2.09 -4.222,-4.3 -11.747,-2.974 -0.751,0.133 -1.524,0.299 -2.311,0.494 -1.843,-6.407 -4.928,-10.941 -9.189,-10.941 -2.477,0 -5.981,1.583 -8.617,9.16 -0.026,0.084 -0.673,2.07 -1.177,4.31 -0.514,2.279 -0.992,4.726 -1.424,7.284 -1.365,0.979 -2.652,1.983 -3.849,3.004 -3.546,-3.667 -5.038,-6.774 -4.284,-8.081 0.455,-0.787 1.882,-1.44 4.044,-1.128 1.245,0.179 2.08,0.377 2.438,0.471 0.331,-1.7 0.77,-3.322 1.076,-4.375 -0.524,-0.133 -1.489,-0.354 -2.871,-0.556 -3.796,-0.546 -7.086,0.732 -8.587,3.335 -2.133,3.693 0.25,8.634 4.879,13.432 -0.563,0.585 -1.096,1.17 -1.583,1.755 -4.909,5.854 -4.502,9.573 -3.296,11.66 1.336,2.311 4.099,3.497 7.778,3.497 2.487,0 5.396,-0.543 8.559,-1.648 1.518,-0.53 5.139,-1.992 6.849,-2.691 1.664,0.767 3.312,1.44 4.921,2.012 -1.408,4.898 -3.351,7.746 -4.86,7.746 -1.196,0 -2.636,-1.749 -3.764,-4.567 -0.045,-0.114 -0.123,-0.342 -0.208,-0.592 -1.527,0.602 -3.104,1.089 -4.274,1.424 0.101,0.305 0.211,0.627 0.299,0.842 2.448,6.114 5.672,7.398 7.947,7.398 4.265,0 7.35,-4.534 9.19,-10.941 0.79,0.195 1.56,0.361 2.311,0.494 1.583,0.279 2.964,0.403 4.173,0.403"
           id="Fill-1" />
      </g>
      <g
         id="Group"
         transform="translate(93.2349,15.4816)">
        <path
           d="m 34.862,33.929 -8.932,-8.932 -3.969,3.536 8.685,8.747 c -2.418,1.366 -5.211,2.11 -8.188,2.11 -9.303,0 -16.747,-7.382 -16.747,-16.87 0,-9.554 7.444,-16.936 16.747,-16.936 9.306,0 16.747,7.382 16.747,16.936 0,4.463 -1.613,8.432 -4.343,11.409 M 22.455,0 C 10.047,0 0,9.986 0,22.516 c 0,12.469 10.047,22.517 22.455,22.517 4.528,0 8.747,-1.365 12.28,-3.66 l 4.902,4.963 3.969,-3.598 -4.775,-4.775 c 3.784,-4.031 6.14,-9.427 6.14,-15.447 C 44.971,9.986 34.862,0 22.455,0"
           id="Fill-8" />
        <path
           d="M 58.1486,22.3895 V 6.2015 h 11.598 c 4.281,0 7.752,3.599 7.752,8.065 0,4.466 -3.474,8.126 -7.752,8.126 h -11.598 z m 25.12,-8.123 c 0,-7.444 -6.078,-13.461 -13.522,-13.461 h -17.368 v 43.421 h 5.77 v -16.623 h 10.236 l 9.739,16.623 h 6.387 l -10.236,-17.368 c 5.21,-1.862 8.994,-6.887 8.994,-12.592 z"
           id="Fill-10" />
        <polygon
           id="Fill-12"
           points="90.6966,0.8059 90.6966,44.2269 116.1546,44.2269 121.9206,44.2269 121.9206,38.7659 96.4626,38.7659 96.4626,0.8059 " />
      </g>
    </g>
  </g>
</svg>
