<svg xmlns="http://www.w3.org/2000/svg" viewBox="0 0 129.52 42.7">
  <defs>
    <clipPath id="a">
      <path d="M422.43 91.53c-.85 0-1.53-.69-1.53-1.54v-4.62h-19.93l-.04 2.92a32.2 32.2 0 0 1-18.45 58.52A32.2 32.2 0 0 1 364 88.3l.04-.02-.04-2.9h-19.93v4.61a1.54 1.54 0 1 1-3.07 0v-7.7h26.03l.09 6.68c0 .66-.4 1.21-.97 1.44-.1.16-.22.3-.38.41a29.1 29.1 0 0 0 16.72 52.91 29.1 29.1 0 0 0 16.26-53.22c-.16-.1-.27-.23-.37-.37a1.5 1.5 0 0 1-.54-1.16l.09-6.68h26.04v7.69c0 .85-.69 1.54-1.54 1.54z" clip-rule="evenodd"/>
    </clipPath>
    <clipPath id="b">
      <path d="M0 0h842v595H0z"/>
    </clipPath>
    <clipPath id="c">
      <path d="M401.9 112.4c-.61.76-1.3 1.53-2.04 2.3.74.77 1.42 1.54 2.05 2.3 3.42 4.25 4.48 8 2.99 10.6-1.14 1.96-3.6 3-7.1 3-1.97 0-4.2-.33-6.6-.93-1.88 6.58-5.02 10.82-8.63 10.82-3.61 0-6.74-4.24-8.63-10.82-2.4.6-4.63.92-6.59.92-3.52 0-5.97-1.03-7.1-3-1.5-2.58-.43-6.34 2.99-10.59a35.3 35.3 0 0 1 2.05-2.3c-4.75-4.94-6.85-9.77-5.05-12.9 1.14-1.96 3.6-3 7.1-3 1.96 0 4.2.33 6.6.93 1.88-6.59 5.02-10.82 8.63-10.82 3.61 0 6.74 4.23 8.63 10.82 2.4-.6 4.63-.93 6.59-.93 3.51 0 5.97 1.04 7.1 3 1.5 2.59.44 6.35-2.98 10.6zm-4.1 16.28c1.94 0 4.46-.36 5.43-2.05 1.06-1.82.03-4.89-2.82-8.42a33.47 33.47 0 0 0-1.92-2.16 52.6 52.6 0 0 1-5.65 4.58 52 52 0 0 1-1.15 7.18c2.22.56 4.3.87 6.1.87zm-10.92-21.45a63.06 63.06 0 0 0-4.3-2.27 62.8 62.8 0 0 0-8.45 4.87 64.61 64.61 0 0 0 0 9.75 65.86 65.86 0 0 0 8.44 4.86 63.12 63.12 0 0 0 8.45-4.87 64.25 64.25 0 0 0 0-9.74 62.9 62.9 0 0 0-4.14-2.6zm3.9.14c-.23-1.9-.54-3.66-.92-5.28a49.2 49.2 0 0 0-5.03 1.85 63.31 63.31 0 0 1 5.95 3.43zm-10.47-3.44a49.96 49.96 0 0 0-5.03-1.84 48.85 48.85 0 0 0-.9 5.27 66.15 66.15 0 0 1 5.93-3.43zm-8.19 7.35a48.98 48.98 0 0 0-4.11 3.44 48.71 48.71 0 0 0 4.11 3.42 64.15 64.15 0 0 1 0-6.86zm2.25 10.75c.22 1.9.53 3.66.9 5.28a49.2 49.2 0 0 0 5.04-1.84 66.75 66.75 0 0 1-5.94-3.44zm10.46 3.44c1.72.73 3.4 1.35 5.03 1.84.38-1.61.69-3.38.92-5.27a66.61 66.61 0 0 1-5.95 3.43zm8.2-7.35a49.7 49.7 0 0 0 4.1-3.42 49.1 49.1 0 0 0-4.1-3.42 67.14 67.14 0 0 1 0 6.84zm-10.46 20.45c2.52 0 5.14-3.5 6.82-9.4a53.43 53.43 0 0 1-6.82-2.61 53.52 53.52 0 0 1-6.81 2.6c1.68 5.91 4.3 9.4 6.81 9.4zm-20.66-11.94c.97 1.69 3.5 2.05 5.44 2.05 1.8 0 3.88-.3 6.1-.87-.52-2.2-.9-4.6-1.15-7.18-2.1-1.5-4-3.04-5.65-4.59-.7.73-1.34 1.45-1.92 2.17-2.84 3.53-3.87 6.6-2.82 8.42zm5.44-25.9c-1.94 0-4.47.35-5.44 2.03-1.26 2.18.46 6.2 4.73 10.6a52.97 52.97 0 0 1 5.66-4.6c.24-2.56.63-4.98 1.15-7.18-2.22-.55-4.3-.86-6.1-.86zm15.22-9.9c-2.5 0-5.13 3.5-6.81 9.4a53.3 53.3 0 0 1 6.81 2.61 52.84 52.84 0 0 1 6.82-2.6c-1.69-5.91-4.3-9.4-6.82-9.4zm20.67 11.94c-.98-1.7-3.5-2.05-5.45-2.05-1.8 0-3.88.3-6.1.87.52 2.2.91 4.6 1.15 7.18a52.98 52.98 0 0 1 5.65 4.58c.7-.72 1.34-1.44 1.92-2.16 2.85-3.53 3.88-6.6 2.82-8.42z" clip-rule="evenodd"/>
    </clipPath>
    <clipPath id="d">
      <path d="M0 0h842v595H0z"/>
    </clipPath>
    <clipPath id="e">
      <path d="M382.57 122a7.3 7.3 0 1 1 .02-14.6 7.3 7.3 0 0 1-.02 14.6zm0-12.68a5.38 5.38 0 1 0 .02 10.77 5.38 5.38 0 0 0-.02-10.77z" clip-rule="evenodd"/>
    </clipPath>
    <clipPath id="f">
      <path d="M0 0h842v595H0z"/>
    </clipPath>
    <clipPath id="g">
      <path d="M432.4 90.18v.54h3.88v-.54h-1.64v-4.84h-.59v4.84zm5.12-4.84h-.58v5.58h.58v-1.91c.42.2.81.3 1.2.3.51 0 .86-.14 1.04-.42.18-.28.27-.78.27-1.5v-2.05h-.59v2.04c0 .54-.05.9-.15 1.1-.11.2-.33.3-.67.3-.33 0-.65-.06-.95-.17l-.15-.06zm6.22.48l.23.03.01-.46a11.1 11.1 0 0 0-1.51-.13c-.56 0-.95.17-1.19.49-.23.32-.35.83-.35 1.51 0 1.36.54 2.04 1.62 2.04.53 0 .92-.14 1.18-.43.25-.3.38-.76.38-1.38l-.03-.45h-2.56c0-.43.08-.75.24-.95.15-.21.42-.31.8-.31.4 0 .78.01 1.18.04zm-.2 1.69c0 .48-.08.81-.24 1.01-.15.2-.4.3-.74.3-.35 0-.6-.1-.78-.32-.17-.2-.26-.53-.26-.99zm5.19-2.25c-.8 0-1.36.22-1.66.66-.3.44-.46 1.14-.46 2.08 0 .95.16 1.65.47 2.1.3.47.86.7 1.65.7.79 0 1.34-.23 1.65-.69.32-.45.47-1.15.47-2.1 0-.66-.06-1.19-.2-1.58-.13-.4-.36-.7-.69-.89l.66-1.06-.56-.27-.68 1.12a2.53 2.53 0 0 0-.65-.07zm-1.2 1.05c.21-.35.61-.52 1.2-.52.6 0 1 .17 1.2.5.2.34.3.9.3 1.7 0 .8-.1 1.37-.32 1.73-.2.37-.6.55-1.19.55-.58 0-.97-.18-1.18-.54-.21-.36-.32-.94-.32-1.72 0-.79.1-1.36.31-1.7zm6.74 2.92h.58v-3.89h-.58v.27a2.22 2.22 0 0 0-1.15-.35c-.53 0-.88.14-1.05.42-.18.27-.26.78-.26 1.52v2.03h.58V87.2c0-.57.05-.95.15-1.14.1-.19.32-.29.66-.29a2.37 2.37 0 0 1 .92.22l.15.07zm4.43-1.18v-1.99c.02-.19.17-.3.45-.34l-.02-.46c-.41 0-.72.1-.92.31a3.4 3.4 0 0 0-1.4-.3c-.36 0-.63.1-.82.3-.18.2-.27.49-.27.87s.1.65.28.83c.2.18.5.3.9.33l1.22.12v.33c0 .27-.06.46-.17.57a.63.63 0 0 1-.47.17c-.41 0-.84-.02-1.28-.08l-.24-.02-.03.44a7.8 7.8 0 0 0 1.52.17c.43 0 .75-.1.95-.3.2-.2.3-.52.3-.95zm-2.39-1.58c0-.48.2-.72.6-.72.34 0 .69.06 1.03.18l.18.06v1.29l-1.15-.11c-.23-.02-.4-.09-.5-.2-.1-.12-.16-.28-.16-.5zm4.12-1.13h-.58v3.89h.57v-.27c.42.23.82.34 1.2.34.52 0 .87-.13 1.05-.41.18-.28.27-.78.27-1.5v-2.05h-.58v2.04c0 .54-.05.9-.16 1.1-.1.2-.33.3-.68.3a2.61 2.61 0 0 1-.95-.22l-.14-.06zm5.57 3.38h-1.23v-1.86c0-.44.03-.73.1-.87.06-.14.21-.21.45-.21l.7.04.03-.48a5.3 5.3 0 0 0-.79-.08c-.4 0-.68.1-.83.3-.16.19-.24.56-.24 1.12v2.04h-.55v.5h.55v1.2h.58v-1.2H466zm3.13.5h.58v-3.88h-.58v.27a2.22 2.22 0 0 0-1.15-.35c-.52 0-.87.14-1.05.42-.17.27-.26.78-.26 1.52v2.03h.59V87.2c0-.57.04-.95.14-1.14.1-.19.32-.29.67-.29a2.37 2.37 0 0 1 .92.22l.14.07zm2.28-3.88h-.58v3.89h.57v-.27c.4.23.77.34 1.14.34.48 0 .81-.13 1-.4.18.11.4.2.67.28.27.08.5.12.72.12.51 0 .86-.13 1.04-.41.18-.28.27-.78.27-1.5v-2.05h-.59v2.04c0 .54-.05.9-.15 1.1-.1.2-.32.3-.66.3a2.64 2.64 0 0 1-.95-.22l-.14-.06c.06-.17.1-.55.1-1.14v-2.02h-.58v2c0 .57-.05.95-.16 1.15-.1.2-.32.3-.66.3a2.39 2.39 0 0 1-.9-.22l-.14-.07zm5.87 1.87v.54h2.35v-.54zm4.13.2v-2.07h-.6v5.38h1.99c.57 0 1-.13 1.28-.4.29-.26.43-.67.43-1.23 0-.83-.33-1.35-.98-1.56l1.03-2.19h-.66l-.97 2.06zm1.4.52c.72 0 1.09.38 1.09 1.13 0 .75-.37 1.13-1.1 1.13h-1.4v-2.26zm5.25-2.1l.22.02.02-.46a11.1 11.1 0 0 0-1.52-.13c-.55 0-.95.17-1.18.49-.24.32-.35.83-.35 1.51 0 1.36.54 2.04 1.62 2.04.52 0 .91-.14 1.17-.43.26-.3.39-.76.39-1.38l-.03-.45h-2.56c0-.43.08-.75.23-.95.16-.21.43-.31.81-.31.39 0 .78.01 1.18.04zm-.21 1.68c0 .48-.08.81-.23 1.01-.15.2-.4.3-.75.3-.34 0-.6-.1-.77-.32-.18-.2-.26-.53-.27-.99zm2.7 1.27c-.56 0-.84-.2-.84-.59 0-.18.06-.3.2-.38.12-.08.42-.15.88-.23.46-.08.78-.2.97-.34.2-.15.29-.42.29-.82 0-.4-.13-.69-.38-.88a1.89 1.89 0 0 0-1.12-.28 7 7 0 0 0-1.14.11l-.23.04.03.5a9.86 9.86 0 0 1 1.34-.13c.3 0 .52.05.68.15.16.1.24.25.24.48 0 .23-.07.38-.2.46-.14.08-.43.16-.89.23-.45.07-.78.18-.97.32-.19.14-.28.4-.28.77 0 .38.13.66.4.84.26.18.6.27 1 .27.3 0 .7-.03 1.18-.1l.22-.04-.02-.5c-.57.08-1.03.12-1.36.12zm2.4-3.44v3.89h.57v-3.89zm0 4.77v.67h.57v-.67zm2.9-1.33c-.56 0-.84-.2-.84-.59 0-.18.07-.3.2-.38.13-.08.42-.15.88-.23.46-.08.79-.2.98-.34.19-.15.28-.42.28-.82 0-.4-.12-.69-.38-.88a1.89 1.89 0 0 0-1.12-.28 7 7 0 0 0-1.13.11l-.24.04.04.5a9.87 9.87 0 0 1 1.33-.13c.3 0 .53.05.69.15.15.1.23.25.23.48 0 .23-.06.38-.2.46-.13.08-.43.16-.88.23-.46.07-.78.18-.97.32-.2.14-.29.4-.29.77 0 .38.13.66.4.84.27.18.6.27 1 .27.31 0 .7-.03 1.18-.1l.22-.04-.02-.5c-.57.08-1.02.12-1.35.12zm4.4-.06h-1.23v-1.86c0-.44.03-.73.1-.87.06-.14.22-.21.46-.21l.69.04.04-.48a5.3 5.3 0 0 0-.8-.08c-.4 0-.67.1-.83.3-.15.19-.23.56-.23 1.12v2.04h-.55v.5h.55v1.2h.57v-1.2h1.23zm3.46-.67v-1.99c.01-.19.16-.3.45-.34l-.03-.46c-.4 0-.71.1-.92.31a3.4 3.4 0 0 0-1.4-.3c-.35 0-.62.1-.81.3-.19.2-.28.49-.28.87s.1.65.29.83c.19.18.49.3.9.33l1.21.12v.33c0 .27-.05.46-.17.57a.63.63 0 0 1-.46.17c-.42 0-.84-.02-1.29-.08l-.24-.02-.02.44a7.8 7.8 0 0 0 1.51.17c.44 0 .76-.1.96-.3.2-.2.3-.52.3-.95zm-2.4-1.58c0-.48.2-.72.6-.72.35 0 .7.06 1.04.18l.17.06v1.29l-1.14-.11c-.24-.02-.4-.09-.5-.2-.11-.12-.16-.28-.16-.5zm4.13-1.13h-.59v3.89h.58v-.27c.42.23.82.34 1.2.34.52 0 .86-.13 1.04-.41.18-.28.27-.78.27-1.5v-2.05h-.57v2.04c0 .54-.06.9-.16 1.1-.1.2-.33.3-.68.3a2.6 2.6 0 0 1-.95-.22l-.14-.06zm5.56 3.38h-1.23v-1.86c0-.44.03-.73.1-.87.06-.14.22-.21.46-.21l.69.04.04-.48a5.3 5.3 0 0 0-.8-.08c-.4 0-.68.1-.83.3-.16.19-.23.56-.23 1.12v2.04h-.55v.5h.55v1.2h.57v-1.2H511zm7.19-3.38h-2.96v5.38h.6v-4.84h2.36zm3.25.48l.23.03.01-.46a11.1 11.1 0 0 0-1.5-.13c-.57 0-.96.17-1.2.49-.23.32-.34.83-.34 1.51 0 1.36.54 2.04 1.62 2.04.52 0 .9-.14 1.17-.43.26-.3.38-.76.38-1.38l-.03-.45h-2.56c0-.43.08-.75.24-.95.15-.21.42-.31.8-.31.4 0 .78.01 1.18.04zm-.2 1.69c0 .48-.08.81-.24 1.01-.15.2-.4.3-.74.3-.34 0-.6-.1-.78-.32-.17-.2-.26-.53-.26-.99zm4.46 3.41v-5.58h-.57v.27c-.4-.23-.8-.35-1.18-.35-.2 0-.39.03-.55.08-.15.05-.3.15-.43.28-.28.28-.42.8-.42 1.55 0 .76.13 1.3.38 1.63.25.34.66.5 1.24.5.3 0 .62-.03.96-.1v1.72zm-2.02-5.08a1 1 0 0 1 .36-.06 2.95 2.95 0 0 1 .93.22l.16.07v2.64c-.33.06-.64.09-.93.09-.39 0-.66-.13-.82-.38a2.29 2.29 0 0 1-.23-1.17c0-.6.09-1 .27-1.2.08-.1.17-.17.26-.21zm4.64-2.32c-.62 0-1.05.08-1.3.25-.24.17-.37.47-.37.92 0 .21.05.38.14.52.1.13.25.28.48.44-.15.1-.22.28-.22.54 0 .09.06.25.2.49l.06.12c-.4.19-.6.58-.6 1.18 0 .88.47 1.32 1.44 1.32.25 0 .48-.02.7-.07l.1-.03 1.16.04v-.5l-.74.01c.17-.17.25-.43.25-.77 0-.5-.12-.83-.36-1.03-.24-.19-.62-.29-1.13-.29-.14 0-.27.01-.38.03-.1-.22-.14-.37-.14-.44 0-.16.05-.26.15-.3.1-.04.4-.06.89-.06.5 0 .85-.07 1.07-.23.21-.16.32-.46.32-.9 0-.83-.57-1.24-1.72-1.24zm-1.1 1.22c0-.28.08-.47.24-.58.15-.1.43-.16.84-.16s.7.06.89.18c.17.11.26.3.26.57 0 .26-.06.44-.19.51-.13.08-.38.12-.76.12l-.84.04a1.37 1.37 0 0 1-.34-.33.65.65 0 0 1-.1-.35zm.27 2.58c.14-.13.36-.2.68-.2.31 0 .54.07.67.2.14.13.2.35.2.66 0 .3-.06.53-.2.66-.13.13-.36.2-.67.2-.32 0-.54-.08-.68-.2-.14-.14-.2-.36-.2-.66 0-.31.06-.53.2-.66zm5.96-1.5l.22.03.02-.46a11.1 11.1 0 0 0-1.51-.13c-.56 0-.96.17-1.19.49-.23.32-.35.83-.35 1.51 0 1.36.54 2.04 1.62 2.04.52 0 .91-.14 1.17-.43.26-.3.39-.76.39-1.38l-.03-.45h-2.56c0-.43.08-.75.23-.95.16-.21.43-.31.81-.31.39 0 .78.01 1.18.04zm-.21 1.69c0 .48-.08.81-.23 1.01-.15.2-.4.3-.74.3-.35 0-.6-.1-.78-.32-.17-.2-.26-.53-.27-.99zm1.49-2.17v3.89h.57v-.53c.45.31.92.51 1.42.61v-.59a4.17 4.17 0 0 1-1.22-.43l-.2-.1v-2.85z" clip-rule="evenodd"/>
    </clipPath>
    <clipPath id="h">
      <path d="M0 0h842v595H0z"/>
    </clipPath>
    <clipPath id="i">
      <path d="M462.5 108.18c-4.48 0-7.6 1.2-9.36 3.62-1.77 2.42-2.65 6.23-2.65 11.45 0 5.21.9 9.08 2.69 11.61 1.8 2.53 4.9 3.8 9.31 3.8 4.42 0 7.51-1.26 9.3-3.78 1.77-2.51 2.66-6.38 2.66-11.61 0-3.45-.37-6.24-1.1-8.36a9.3 9.3 0 0 0-3.6-4.87l3.62-5.82-4.43-2.07-3.83 6.3a9.53 9.53 0 0 0-2.62-.27zm0 4.18c2.74 0 4.6.83 5.56 2.48s1.44 4.45 1.44 8.38c0 3.94-.5 6.8-1.48 8.58-1 1.78-2.83 2.67-5.53 2.67s-4.54-.89-5.55-2.67c-1-1.78-1.5-4.63-1.5-8.53 0-3.91.49-6.7 1.46-8.39.98-1.68 2.84-2.52 5.6-2.52zm22.27 6.81v-10.51H480v29.52h11.18c6.65 0 9.97-3.13 9.97-9.4 0-4.2-1.6-7.04-4.81-8.53l4.86-11.6h-5.25l-4.26 10.52zm11.48 9.57c0 3.53-1.69 5.3-5.07 5.3h-6.41v-10.73h6.5c1.71 0 2.97.5 3.78 1.49.8.99 1.2 2.3 1.2 3.94zm26.84-20.08h-16.52v29.52h4.78v-25.26h11.74z" clip-rule="evenodd"/>
    </clipPath>
    <clipPath id="j">
      <path d="M0 0h842v595H0z"/>
    </clipPath>
    <clipPath id="k">
      <path d="M432.3 95.23h104v3.89h-104z"/>
    </clipPath>
    <clipPath id="l">
      <path d="M0 0h842v595H0z"/>
    </clipPath>
  </defs>
  <g clip-path="url(#a)" transform="matrix(.66177 0 0 -.66177 -225.66 97.15)">
    <g clip-path="url(#b)">
      <path d="M336 77.3h92.97v74.5H336z" fill="#1d2951"/>
    </g>
  </g>
  <g clip-path="url(#c)" transform="matrix(.66177 0 0 -.66177 -225.66 97.15)">
    <g clip-path="url(#d)">
      <path d="M354.59 83.9h55.97v61.59h-55.97z" fill="#1d2951"/>
    </g>
  </g>
  <g clip-path="url(#e)" transform="matrix(.66177 0 0 -.66177 -225.66 97.15)">
    <g clip-path="url(#f)">
      <path d="M370.28 102.4h24.59V127h-24.6z" fill="#1d2951"/>
    </g>
  </g>
  <g clip-path="url(#g)" transform="matrix(.66177 0 0 -.66177 -225.66 97.15)">
    <g clip-path="url(#h)">
      <path d="M427.4 78.52h114.32v17.4H427.4z" fill="#1d2951"/>
    </g>
  </g>
  <g clip-path="url(#i)" transform="matrix(.66177 0 0 -.66177 -225.66 97.15)">
    <g clip-path="url(#j)">
      <path d="M445.5 97.15h82.59v46.5h-82.6z" fill="#1d2951"/>
    </g>
  </g>
  <g clip-path="url(#k)" transform="matrix(.66177 0 0 -.66177 -225.66 97.15)">
    <g clip-path="url(#l)">
      <path d="M427.3 90.23h114v13.89h-114z" fill="#1d2951"/>
    </g>
  </g>
</svg>
