<svg xmlns="http://www.w3.org/2000/svg" viewBox="0 0 252.83 79.02">
  <defs>
    <clipPath id="e">
      <path d="M382.57 122a7.3 7.3 0 1 1 .02-14.6 7.3 7.3 0 0 1-.02 14.6zm0-12.68a5.38 5.38 0 1 0 .02 10.77 5.38 5.38 0 0 0-.02-10.77z" clip-rule="evenodd"/>
    </clipPath>
    <clipPath id="f">
      <path d="M0 0h842v595H0z"/>
    </clipPath>
    <clipPath id="c">
      <path d="M401.9 112.4c-.61.76-1.3 1.53-2.04 2.3.74.77 1.42 1.54 2.05 2.3 3.42 4.25 4.48 8 2.99 10.6-1.14 1.96-3.6 3-7.1 3-1.97 0-4.2-.33-6.6-.93-1.88 6.58-5.02 10.82-8.63 10.82-3.61 0-6.74-4.24-8.63-10.82-2.4.6-4.63.92-6.59.92-3.52 0-5.97-1.03-7.1-3-1.5-2.58-.43-6.34 2.99-10.59a35.3 35.3 0 0 1 2.05-2.3c-4.75-4.94-6.85-9.77-5.05-12.9 1.14-1.96 3.6-3 7.1-3 1.96 0 4.2.33 6.6.93 1.88-6.59 5.02-10.82 8.63-10.82 3.61 0 6.74 4.23 8.63 10.82 2.4-.6 4.63-.93 6.59-.93 3.51 0 5.97 1.04 7.1 3 1.5 2.59.44 6.35-2.98 10.6zm-4.1 16.28c1.94 0 4.46-.36 5.43-2.05 1.06-1.82.03-4.89-2.82-8.42a33.47 33.47 0 0 0-1.92-2.16 52.6 52.6 0 0 1-5.65 4.58 52 52 0 0 1-1.15 7.18c2.22.56 4.3.87 6.1.87zm-10.92-21.45a63.06 63.06 0 0 0-4.3-2.27 62.8 62.8 0 0 0-8.45 4.87 64.61 64.61 0 0 0 0 9.75 65.86 65.86 0 0 0 8.44 4.86 63.12 63.12 0 0 0 8.45-4.87 64.25 64.25 0 0 0 0-9.74 62.9 62.9 0 0 0-4.14-2.6zm3.9.14c-.23-1.9-.54-3.66-.92-5.28a49.2 49.2 0 0 0-5.03 1.85 63.31 63.31 0 0 1 5.95 3.43zm-10.47-3.44a49.96 49.96 0 0 0-5.03-1.84 48.85 48.85 0 0 0-.9 5.27 66.15 66.15 0 0 1 5.93-3.43zm-8.19 7.35a48.98 48.98 0 0 0-4.11 3.44 48.71 48.71 0 0 0 4.11 3.42 64.15 64.15 0 0 1 0-6.86zm2.25 10.75c.22 1.9.53 3.66.9 5.28a49.2 49.2 0 0 0 5.04-1.84 66.75 66.75 0 0 1-5.94-3.44zm10.46 3.44c1.72.73 3.4 1.35 5.03 1.84.38-1.61.69-3.38.92-5.27a66.61 66.61 0 0 1-5.95 3.43zm8.2-7.35a49.7 49.7 0 0 0 4.1-3.42 49.1 49.1 0 0 0-4.1-3.42 67.14 67.14 0 0 1 0 6.84zm-10.46 20.45c2.52 0 5.14-3.5 6.82-9.4a53.43 53.43 0 0 1-6.82-2.61 53.52 53.52 0 0 1-6.81 2.6c1.68 5.91 4.3 9.4 6.81 9.4zm-20.66-11.94c.97 1.69 3.5 2.05 5.44 2.05 1.8 0 3.88-.3 6.1-.87-.52-2.2-.9-4.6-1.15-7.18-2.1-1.5-4-3.04-5.65-4.59-.7.73-1.34 1.45-1.92 2.17-2.84 3.53-3.87 6.6-2.82 8.42zm5.44-25.9c-1.94 0-4.47.35-5.44 2.03-1.26 2.18.46 6.2 4.73 10.6a52.97 52.97 0 0 1 5.66-4.6c.24-2.56.63-4.98 1.15-7.18-2.22-.55-4.3-.86-6.1-.86zm15.22-9.9c-2.5 0-5.13 3.5-6.81 9.4a53.3 53.3 0 0 1 6.81 2.61 52.84 52.84 0 0 1 6.82-2.6c-1.69-5.91-4.3-9.4-6.82-9.4zm20.67 11.94c-.98-1.7-3.5-2.05-5.45-2.05-1.8 0-3.88.3-6.1.87.52 2.2.91 4.6 1.15 7.18a52.98 52.98 0 0 1 5.65 4.58c.7-.72 1.34-1.44 1.92-2.16 2.85-3.53 3.88-6.6 2.82-8.42z" clip-rule="evenodd"/>
    </clipPath>
    <clipPath id="d">
      <path d="M0 0h842v595H0z"/>
    </clipPath>
    <clipPath id="a">
      <path d="M422.43 91.53c-.85 0-1.53-.69-1.53-1.54v-4.62h-19.93l-.04 2.92a32.2 32.2 0 0 1-18.45 58.52A32.2 32.2 0 0 1 364 88.3l.04-.02-.04-2.9h-19.93v4.61a1.54 1.54 0 1 1-3.07 0v-7.7h26.03l.09 6.68c0 .66-.4 1.21-.97 1.44-.1.16-.22.3-.38.41a29.1 29.1 0 0 0 16.72 52.91 29.1 29.1 0 0 0 16.26-53.22 1.3 1.3 0 0 1-.37-.37 1.5 1.5 0 0 1-.54-1.16l.09-6.68h26.04v7.69c0 .85-.69 1.54-1.54 1.54z" clip-rule="evenodd"/>
    </clipPath>
    <clipPath id="b">
      <path d="M0 0h842v595H0z"/>
    </clipPath>
  </defs>
  <g clip-path="url(#a)" transform="matrix(1.00831 0 0 -1.00831 -343.83 148.09)">
    <g clip-path="url(#b)">
      <path d="M336 77.3h92.97v74.5H336z" fill="#1d2951"/>
    </g>
  </g>
  <g clip-path="url(#c)" transform="matrix(1.00831 0 0 -1.00831 -343.83 148.09)">
    <g clip-path="url(#d)">
      <path d="M354.59 83.9h55.97v61.59h-55.97z" fill="#1d2951"/>
    </g>
  </g>
  <g clip-path="url(#e)" transform="matrix(1.00831 0 0 -1.00831 -343.83 148.09)">
    <g clip-path="url(#f)">
      <path d="M370.28 102.4h24.59V127h-24.6z" fill="#1d2951"/>
    </g>
  </g>
  <g style="line-height:1.25">
    <path d="M121.35 66.77q-14.45 0-19.95-7.92t-5.5-24.88q0-17.05 5.6-25.25 5.59-8.3 19.85-8.3 14.25 0 19.85 8.2 5.68 8.2 5.68 25.26 0 11.83-2.42 19-2.42 7.09-8.3 10.54l7.93 12.77-6.71 3.16-8.2-13.42q-3.08.84-7.83.84zm-18.08-32.9q0 14.17 3.73 20.42 3.72 6.15 14.35 6.15 10.71 0 14.35-5.97 3.73-6.06 3.73-20.31 0-14.36-3.83-20.88-3.82-6.52-14.35-6.52-10.43 0-14.25 6.52-3.73 6.43-3.73 20.6zm63.94 7.28v24.7h-7.17V1.34h23.85q10.25 0 15.38 4.76 5.22 4.75 5.22 14.81 0 14.91-11.84 18.73l12.4 26.2h-7.92l-11.65-24.7zM184 34.8q13.14 0 13.14-13.51 0-13.61-13.24-13.61h-16.68V34.8zm68.88 31.04h-35.51V1.35h7.18v58.06h28.33z" style="-inkscape-font-specification:'Titillium Web'" aria-label="QRL" font-size="192" font-family="Titillium Web" font-weight="400" letter-spacing="0" word-spacing="0" fill="#1d2951"/>
  </g>
</svg>
